<?xml version="1.0" encoding="UTF-8"?>
<svg id="Layer_2" data-name="Layer 2" xmlns="http://www.w3.org/2000/svg" viewBox="0 0 205.12 154.41">
  <g id="Layer_1-2" data-name="Layer 1">
    <path d="M36.47,148.72l127.15.08c.54,1.6.51,3.48-.02,5.49l-137.97.12-.04-77.12L103.89,24.11l73.88,51.72c-5.17.88-10.24.81-15.88.39l-59.47-41.31-65.52,46.01-.44,67.8Z"/>
    <path d="M205.12,73.3c-4.54,2.01-9.18,2.38-14.09,1.9L101.89,11.17,11.72,75.93c-4.46-.05-8.15-.54-11.72-2.21L101.82,0l26.35,17.82,1.08-14.26,23.13-.06-.39,30.57,53.12,39.23Z"/>
    <path d="M43.02,120.15l1.85-6.72,18.25.05c1.29,0,3.07-2.47,3.08-3.74.07-5.23-8.91-.22-15.93-3.84-3.49-1.8-2.15-6.69-1.5-9.41,3.35-14.1,12.95-8.35,20.23-11.3l8.09,1.4c1.79.19.59,6.28-1.3,6.34l-15.67.55c-1.09.04-2.52,2.77-2.55,3.77-.15,4.99,12.03-.53,17.32,4.5,2.41,5.19-.48,16.54-7.03,17.81-8.43,1.64-16.31.51-24.85.58Z"/>
    <path d="M113.85,86.61l-19.18,24.91-2.56,8.76-8.55-.3c.88-4.08,2.37-7.74,1.74-10.38l-5.55-23.19,9.05-.1,3.99,15.59,11.73-15.1c2.43-.61,5.96-.61,9.34-.19Z"/>
    <path d="M129.88,84.55c-4.24,15.4-16.1,26.42-26.75,34.87,8.44-10.73,15.88-20.8,16.73-34.03.34-5.32-.55-10.39-4.09-14.31-2.96-3.27-7.76-4.41-13.07-5.81,7.27-3.04,16.22-3.06,22.58,1.7,5.41,4.05,6.3,11.38,4.6,17.58Z"/>
    <path d="M83.11,136.33c12.9-8.69,25.91-17.17,37.5-28.11,9.25-10,19.03-21.32,15.37-35.96,10.14,14.48-.79,31.41-12.36,41.97-12.08,9.24-24.94,17.13-40.51,22.09Z"/>
    <path d="M113.64,83.41c-11.14-12.27-27.02-6.34-40.81-1.39,7.54-7.3,17.6-11.84,27.93-12.43,7.9-.45,13.98,6.13,12.88,13.82Z"/>
  </g>
</svg>