<svg width="180" height="154" viewBox="0 0 180 154" fill="none" xmlns="http://www.w3.org/2000/svg">
<g clip-path="url(#clip0_1575_2353)">
<path d="M143.582 148.405C144.056 150.001 144.03 151.876 143.565 153.88L22.4912 154L22.4561 77.0848L91.1671 24.046L155.999 75.6287C151.463 76.5063 147.013 76.4365 142.064 76.0176L89.8771 34.8173L32.381 80.7051L31.9949 148.325L143.582 148.405Z" fill="black"/>
<path d="M99.9074 86.38L83.0762 111.224L80.8298 119.961L73.3268 119.661C74.0991 115.592 75.4066 111.942 74.8537 109.309L69.9834 86.1806L77.9251 86.0808L81.4265 101.629L91.72 86.5695C93.8524 85.9612 96.9501 85.9611 99.9161 86.38H99.9074Z" fill="black"/>
<path d="M113.974 84.3255C110.254 99.6846 99.8459 110.675 90.5002 119.103C97.9066 108.401 104.435 98.3581 105.181 85.1633C105.48 79.8574 104.699 74.8009 101.592 70.8913C98.9947 67.63 94.7826 66.493 90.1228 65.0967C96.5025 62.0648 104.356 62.0448 109.938 66.7922C114.685 70.8314 115.466 78.142 113.974 84.3255Z" fill="black"/>
<path d="M180 73.1054C176.016 75.11 171.944 75.479 167.636 75.0003L89.412 11.1403L10.2847 75.7284C6.37091 75.6785 3.1328 75.1898 0 73.5243L89.3506 0L112.474 17.7727L113.421 3.55055L133.719 3.49071L133.377 33.9795L179.991 73.1054H180Z" fill="#DE0000"/>
<path d="M37.7516 119.831L39.375 113.129L55.39 113.179C56.522 113.179 58.084 110.715 58.0928 109.449C58.1543 104.232 50.274 109.229 44.1137 105.619C41.0511 103.824 42.227 98.9466 42.7974 96.2338C45.7371 82.1712 54.1615 87.906 60.5499 84.9638L67.6492 86.3601C69.22 86.5496 68.1669 92.6234 66.5084 92.6832L52.7574 93.2318C51.8009 93.2717 50.546 95.9944 50.5197 96.9918C50.3881 101.969 61.0764 96.4632 65.7186 101.48C67.8335 106.656 65.2974 117.976 59.5495 119.243C52.1519 120.878 45.2369 119.751 37.7428 119.821L37.7516 119.831Z" fill="#DE0000"/>
<path d="M72.9319 135.968C84.2521 127.301 95.6689 118.844 105.84 107.933C113.957 97.9592 122.539 86.6693 119.327 72.0681C128.225 86.5097 118.634 103.395 108.481 113.927C97.8803 123.142 86.5952 131.011 72.9319 135.958V135.968Z" fill="#DE0000"/>
<path d="M99.7231 83.1885C89.9473 70.9511 76.0121 76.8654 63.9109 81.8022C70.5275 74.5216 79.3555 69.9936 88.4204 69.4052C95.353 68.9564 100.688 75.5189 99.7231 83.1885Z" fill="#DE0000"/>
</g>
<defs>
<clipPath id="clip0_1575_2353">
<rect width="180" height="154" fill="white"/>
</clipPath>
</defs>
</svg>
