<svg xmlns="http://www.w3.org/2000/svg" viewBox="0 0 24 24" fill="currentColor">
  <path d="M12.04 2c-5.46 0-9.91 4.45-9.91 9.91 0 1.75.46 3.45 1.32 4.95L2.05 22l5.25-1.38c1.45.79 3.08 1.21 4.74 1.21 5.46 0 9.91-4.45 9.91-9.91 0-2.65-1.03-5.14-2.9-7.01A9.816 9.816 0 0 0 12.04 2m.01 1.67c2.2 0 4.26.86 5.82 2.42a8.225 8.225 0 0 1 2.41 5.83c0 4.54-3.7 8.23-8.24 8.23-1.48 0-2.93-.39-4.19-1.15l-.3-.18-3.12.82.83-3.04-.19-.31a8.19 8.19 0 0 1-1.26-4.38c0-4.54 3.7-8.24 8.24-8.24M8.53 7.33c-.19-.43-.43-.43-.63-.43-.16 0-.35 0-.54.2-.19.21-.73.71-.73 1.73s.75 2 1.91 4.5c.52 1.1 1.89 3.97 4.58 4.77 2.69.8 2.69.53 3.19.49.49-.04 1.58-.65 1.8-1.28.22-.63.22-1.17.15-1.28-.07-.11-.26-.18-.54-.32s-1.64-.81-1.89-.9-.43-.14-.62.14-.73.91-.9 1.1-.33.22-.61.08a7.86 7.86 0 0 1-2.31-1.42 8.65 8.65 0 0 1-1.6-1.98c-.17-.29-.02-.44.12-.58.13-.13.28-.34.42-.51.14-.17.19-.29.28-.48.09-.18.05-.34-.02-.48s-.63-1.52-.86-2.08"/>
</svg>
